<svg width="607" height="414" viewBox="0 0 607 414" fill="none" xmlns="http://www.w3.org/2000/svg">
<g clip-path="url(#clip0)" filter="url(#filter0_d)">
<path d="M87.5446 405C134.79 405 173.089 401.981 173.089 398.257C173.089 394.533 134.79 391.514 87.5446 391.514C40.2996 391.514 2 394.533 2 398.257C2 401.981 40.2996 405 87.5446 405Z" fill="url(#paint0_linear)"/>
<path d="M115.251 102.489L81.123 92.8698C90.2361 83.9826 94.2004 75.6105 93.0161 67.7534H115.251V102.489Z" fill="#FFB8B8"/>
<path d="M118.871 372.891L107.847 374.494L94.5673 248.378L73.3667 373.96L61.9907 374.494V215.246H132.315L118.871 372.891Z" fill="#2F2E41"/>
<path d="M67.716 398.315C69.4463 398.366 71.1434 397.817 72.5369 396.756C73.9305 395.695 74.9403 394.182 75.4056 392.459L76.2108 380.041L74.5876 371.234C70.3049 367.597 65.9753 367.672 61.6019 371.234L60.2074 389.681C60.1256 390.763 60.2574 391.851 60.5949 392.879C60.9324 393.908 61.4685 394.854 62.1707 395.661C62.8729 396.469 63.7265 397.12 64.6797 397.576C65.633 398.033 66.666 398.284 67.716 398.315V398.315Z" fill="#2F2E41"/>
<path d="M113.22 398.315C114.95 398.366 116.647 397.817 118.041 396.756C119.434 395.695 120.444 394.182 120.909 392.459L121.715 380.041L120.091 371.234C115.809 367.597 111.479 367.672 107.106 371.234L105.711 389.681C105.629 390.763 105.761 391.851 106.099 392.879C106.436 393.908 106.972 394.854 107.674 395.661C108.377 396.469 109.23 397.12 110.183 397.576C111.137 398.033 112.17 398.284 113.22 398.315V398.315Z" fill="#2F2E41"/>
<path d="M110.597 84.3198C121.449 84.3198 130.246 75.2281 130.246 64.0129C130.246 52.7977 121.449 43.7061 110.597 43.7061C99.7451 43.7061 90.9478 52.7977 90.9478 64.0129C90.9478 75.2281 99.7451 84.3198 110.597 84.3198Z" fill="#FFB8B8"/>
<path d="M135.417 217.917H60.4395C70.1574 171.373 70.1302 133.887 62.3894 103.571C61.8963 101.64 62.1102 99.5902 62.9899 97.813C63.8697 96.0358 65.3534 94.6569 67.1564 93.9408L87.3281 85.9229C93.384 94.0054 101.93 97.5356 115.251 92.3355L125.821 94.5764C128.395 95.1187 130.692 96.6066 132.285 98.7646C133.879 100.923 134.662 103.604 134.49 106.313C133.712 118.17 134.018 130.117 133.349 140.431C131.276 172.368 130.381 197.266 135.417 217.917Z" fill="#E6E6E6"/>
<path d="M100.255 37.2931C100.255 37.2931 111.631 23.9333 125.076 36.7587L128.695 37.8275L126.11 39.965C126.11 39.965 139.554 46.3777 138.52 59.7375C138.52 59.7375 136.452 59.2031 135.417 59.7375C134.383 60.2719 133.866 66.1502 133.866 66.1502C133.866 66.1502 132.315 61.8751 131.798 61.3407C131.281 60.8063 124.041 67.219 112.148 57.6C112.148 57.6 108.529 67.219 104.392 66.1502C100.255 65.0815 94.5674 65.6158 91.9819 72.5629C91.9819 72.5629 78.0205 41.5682 100.255 37.2931Z" fill="#2F2E41"/>
<path d="M139.037 206.161L132.399 215.355C131.708 216.313 131.208 217.403 130.928 218.562C130.648 219.722 130.594 220.927 130.769 222.108C130.944 223.289 131.344 224.422 131.947 225.442C132.55 226.461 133.343 227.347 134.28 228.047V228.047C135.487 228.948 136.896 229.515 138.375 229.693C139.854 229.872 141.352 229.656 142.728 229.067C144.103 228.478 145.309 227.534 146.232 226.326C147.154 225.118 147.762 223.687 147.997 222.167L149.896 209.902L153.515 156.997L150.93 130.277L134.383 136.69L139.037 159.669V206.161Z" fill="#FFB8B8"/>
<path d="M132.315 143.103L152.481 133.484L151.447 125.912C151.447 119.644 149.613 113.522 146.186 108.35C142.759 103.178 137.899 99.1974 132.244 96.9312L126.11 94.4731L132.315 143.103Z" fill="#E6E6E6"/>
<path d="M58.8884 204.023L65.5262 213.218C66.2175 214.175 66.7177 215.265 66.9976 216.425C67.2775 217.584 67.3315 218.789 67.1564 219.97C66.9814 221.151 66.5809 222.284 65.9782 223.304C65.3754 224.323 64.5825 225.209 63.6455 225.909V225.909C62.4388 226.81 61.029 227.377 59.5502 227.556C58.0715 227.734 56.573 227.519 55.1978 226.929C53.8225 226.34 52.6163 225.396 51.6939 224.188C50.7715 222.981 50.1637 221.549 49.9285 220.03L48.0295 207.764L44.4099 154.859L46.9954 128.14L63.5422 134.552L58.8884 157.531V204.023Z" fill="#FFB8B8"/>
<path d="M65.6105 140.965L45.4441 131.346L46.4783 123.775C46.4783 117.506 48.3122 111.384 51.7392 106.212C55.1663 101.04 60.0264 97.0597 65.6817 94.7935L71.8156 92.3354L65.6105 140.965Z" fill="#E6E6E6"/>
<path d="M593.563 345.438H248.485C247.043 345.436 245.661 344.843 244.642 343.79C243.622 342.737 243.049 341.308 243.047 339.818V184.731C243.049 183.242 243.622 181.813 244.642 180.76C245.661 179.706 247.043 179.114 248.485 179.112H593.563C595.004 179.114 596.386 179.706 597.406 180.76C598.425 181.813 598.998 183.242 599 184.731V339.818C598.998 341.308 598.425 342.737 597.406 343.79C596.386 344.843 595.004 345.436 593.563 345.438V345.438ZM248.485 181.36C247.62 181.361 246.79 181.716 246.179 182.348C245.567 182.981 245.223 183.838 245.222 184.731V339.818C245.223 340.712 245.567 341.569 246.179 342.201C246.79 342.833 247.62 343.189 248.485 343.19H593.563C594.428 343.189 595.257 342.833 595.869 342.201C596.48 341.569 596.824 340.712 596.825 339.818V184.731C596.824 183.838 596.48 182.981 595.869 182.348C595.257 181.716 594.428 181.361 593.563 181.36H248.485Z" fill="#E6E6E6"/>
<path d="M262.621 198.217C261.756 198.217 260.926 198.572 260.314 199.205C259.703 199.837 259.359 200.695 259.359 201.589C259.359 202.483 259.703 203.34 260.314 203.973C260.926 204.605 261.756 204.96 262.621 204.96H308.293C309.158 204.96 309.988 204.605 310.6 203.973C311.212 203.34 311.556 202.483 311.556 201.589C311.556 200.695 311.212 199.837 310.6 199.205C309.988 198.572 309.158 198.217 308.293 198.217H262.621Z" fill="#E6E6E6"/>
<path d="M575.287 221.664V284.185H267.304V251.267C269.437 249.851 271.582 248.443 273.747 247.08C282.993 241.233 292.89 235.764 303.676 233.738C308.777 232.755 314.003 232.687 319.126 233.538C324.539 234.462 329.719 236.389 334.848 238.323C339.905 240.236 344.976 242.21 350.266 243.319C355.421 244.365 360.713 244.473 365.904 243.638C375.807 242.103 385.111 237.99 394.376 234.269C403.699 230.528 413.306 226.993 423.396 226.528C433.357 226.063 443.196 228.495 452.648 231.512C471.919 237.658 491.597 246.775 512.002 240.522C532.723 234.183 551.782 215.883 574.746 221.312C574.963 221.353 575.157 221.479 575.287 221.664Z" fill="url(#paint1_linear)"/>
<path d="M575.287 222.754C575.189 222.944 575.031 223.095 574.84 223.182C574.649 223.269 574.435 223.286 574.232 223.232C571.496 222.584 568.693 222.285 565.887 222.342C543.299 222.754 525.932 241.545 503.846 244.356C483.934 246.888 465.191 236.881 446.468 231.651C436.74 228.933 426.709 227.491 416.698 229.339C406.764 231.166 397.441 235.366 388.08 239.093C379.065 242.682 369.697 246.017 359.937 246.183C349.206 246.369 339.542 241.798 329.589 238.316C324.413 236.502 319.102 235.067 313.617 234.927C308.272 234.861 302.953 235.712 297.877 237.445C287.3 240.921 277.772 247.114 268.493 253.267C268.334 253.383 268.141 253.437 267.947 253.42C267.747 253.392 267.559 253.302 267.41 253.162C267.26 253.021 267.155 252.837 267.109 252.634C267.063 252.431 267.078 252.218 267.152 252.023C267.226 251.829 267.355 251.662 267.523 251.546L267.947 251.267C270.075 249.851 272.216 248.443 274.377 247.08C283.603 241.233 293.479 235.764 304.243 233.738C309.333 232.755 314.549 232.687 319.661 233.538C325.062 234.462 330.231 236.389 335.35 238.323C340.397 240.236 345.457 242.21 350.736 243.319C355.88 244.365 361.161 244.473 366.341 243.638C376.223 242.103 385.508 237.99 394.754 234.269C404.057 230.528 413.644 226.993 423.713 226.528C433.653 226.063 443.471 228.495 452.904 231.512C472.135 237.658 491.771 246.775 512.134 240.522C532.812 234.183 551.831 215.883 574.747 221.312C574.964 221.353 575.157 221.479 575.287 221.664C575.386 221.827 575.439 222.016 575.439 222.209C575.439 222.402 575.386 222.59 575.287 222.754Z" fill="url(#paint2_radial)"/>
<path d="M309.74 239.001C312.226 239.001 314.241 236.918 314.241 234.349C314.241 231.78 312.226 229.698 309.74 229.698C307.254 229.698 305.239 231.78 305.239 234.349C305.239 236.918 307.254 239.001 309.74 239.001Z" fill="#6C63FF"/>
<path d="M423.546 233.02C426.032 233.02 428.047 230.938 428.047 228.369C428.047 225.8 426.032 223.717 423.546 223.717C421.06 223.717 419.045 225.8 419.045 228.369C419.045 230.938 421.06 233.02 423.546 233.02Z" fill="#6C63FF"/>
<path d="M562.428 227.04C564.913 227.04 566.928 224.957 566.928 222.388C566.928 219.819 564.913 217.737 562.428 217.737C559.942 217.737 557.927 219.819 557.927 222.388C557.927 224.957 559.942 227.04 562.428 227.04Z" fill="#6C63FF"/>
<path d="M307.206 310.599C306.341 310.599 305.511 310.954 304.899 311.587C304.287 312.219 303.944 313.076 303.944 313.971C303.944 314.865 304.287 315.722 304.899 316.355C305.511 316.987 306.341 317.342 307.206 317.342H352.878C353.743 317.342 354.573 316.987 355.185 316.355C355.797 315.722 356.14 314.865 356.14 313.971C356.14 313.076 355.797 312.219 355.185 311.587C354.573 310.954 353.743 310.599 352.878 310.599H307.206Z" fill="#E6E6E6"/>
<path d="M279.324 329.473C286.131 329.473 291.648 323.771 291.648 316.737C291.648 309.702 286.131 304 279.324 304C272.518 304 267 309.702 267 316.737C267 323.771 272.518 329.473 279.324 329.473Z" fill="url(#paint3_linear)"/>
<path d="M393.324 329.473C400.131 329.473 405.648 323.771 405.648 316.737C405.648 309.702 400.131 304 393.324 304C386.518 304 381 309.702 381 316.737C381 323.771 386.518 329.473 393.324 329.473Z" fill="url(#paint4_linear)"/>
<path d="M506.324 329.473C513.131 329.473 518.648 323.771 518.648 316.737C518.648 309.702 513.131 304 506.324 304C499.518 304 494 309.702 494 316.737C494 323.771 499.518 329.473 506.324 329.473Z" fill="url(#paint5_linear)"/>
<path d="M417.399 310.599C416.534 310.599 415.704 310.954 415.092 311.587C414.48 312.219 414.137 313.076 414.137 313.971C414.137 314.865 414.48 315.722 415.092 316.355C415.704 316.987 416.534 317.342 417.399 317.342H463.071C463.936 317.342 464.766 316.987 465.378 316.355C465.99 315.722 466.333 314.865 466.333 313.971C466.333 313.076 465.99 312.219 465.378 311.587C464.766 310.954 463.936 310.599 463.071 310.599H417.399Z" fill="#E6E6E6"/>
<path d="M527.592 310.599C526.727 310.599 525.897 310.954 525.285 311.587C524.673 312.219 524.33 313.076 524.33 313.971C524.33 314.865 524.673 315.722 525.285 316.355C525.897 316.987 526.727 317.342 527.592 317.342H573.264C574.129 317.342 574.959 316.987 575.571 316.355C576.183 315.722 576.526 314.865 576.526 313.971C576.526 313.076 576.183 312.219 575.571 311.587C574.959 310.954 574.129 310.599 573.264 310.599H527.592Z" fill="#E6E6E6"/>
<path d="M569.943 137.238H399.696C396.377 137.238 393.688 135.258 393.684 132.818V94.5766C393.688 92.1364 396.377 90.1562 399.696 90.1562H569.943C573.262 90.1562 575.951 92.1364 575.955 94.5766V132.817C575.952 135.257 573.262 137.235 569.943 137.238ZM399.696 91.9229C397.705 91.9229 396.091 93.1112 396.089 94.5751V132.816C396.089 134.28 397.705 135.466 399.696 135.468H569.943C571.934 135.468 573.548 134.28 573.55 132.816V94.5766C573.55 93.1126 571.934 91.9259 569.943 91.9244L399.696 91.9229Z" fill="#E6E6E6"/>
<path d="M438.19 111.889C437.229 111.89 436.308 112.285 435.628 112.987C434.949 113.689 434.566 114.642 434.565 115.635V141.857C434.566 142.85 434.949 143.803 435.628 144.505C436.308 145.207 437.229 145.602 438.19 145.603H567.957C568.918 145.602 569.839 145.207 570.519 144.505C571.198 143.803 571.58 142.85 571.582 141.857V115.635C571.58 114.642 571.198 113.689 570.519 112.987C569.839 112.285 568.918 111.89 567.957 111.889H438.19Z" fill="url(#paint6_linear)"/>
<path d="M438.19 111.889C437.229 111.89 436.308 112.285 435.628 112.987C434.949 113.689 434.566 114.642 434.565 115.635V141.857C434.566 142.85 434.949 143.803 435.628 144.505C436.308 145.207 437.229 145.602 438.19 145.603H567.957C568.918 145.602 569.839 145.207 570.519 144.505C571.198 143.803 571.58 142.85 571.582 141.857V115.635C571.58 114.642 571.198 113.689 570.519 112.987C569.839 112.285 568.918 111.89 567.957 111.889H438.19Z" fill="url(#paint7_linear)"/>
<path d="M456.314 137.362C460.718 137.362 464.288 133.672 464.288 129.121C464.288 124.569 460.718 120.879 456.314 120.879C451.91 120.879 448.339 124.569 448.339 129.121C448.339 133.672 451.91 137.362 456.314 137.362Z" fill="white"/>
<path d="M492.657 125.543C491.792 125.543 490.962 125.899 490.35 126.531C489.739 127.163 489.395 128.021 489.395 128.915C489.395 129.809 489.739 130.667 490.35 131.299C490.962 131.931 491.792 132.286 492.657 132.286H538.329C539.194 132.286 540.024 131.931 540.636 131.299C541.248 130.667 541.592 129.809 541.592 128.915C541.592 128.021 541.248 127.163 540.636 126.531C540.024 125.899 539.194 125.543 538.329 125.543H492.657Z" fill="white"/>
<path d="M442.351 48.082H272.104C268.785 48.082 266.096 46.1019 266.092 43.6617V5.42036C266.096 2.98018 268.785 1 272.104 1H442.351C445.67 1 448.36 2.98018 448.363 5.42036V43.6609C448.36 46.1011 445.67 48.079 442.351 48.082ZM272.104 2.76665C270.113 2.76665 268.499 3.95489 268.497 5.41885V43.6594C268.497 45.1234 270.113 46.3102 272.104 46.3117H442.351C444.343 46.3117 445.956 45.1234 445.959 43.6594V5.42036C445.959 3.9564 444.343 2.76964 442.351 2.76814L272.104 2.76665Z" fill="#E6E6E6"/>
<path d="M310.598 22.7324C309.637 22.7336 308.716 23.1286 308.036 23.8309C307.357 24.5332 306.974 25.4853 306.973 26.4785V52.7009C306.974 53.6941 307.357 54.6462 308.036 55.3485C308.716 56.0508 309.637 56.4458 310.598 56.447H440.365C441.326 56.4458 442.247 56.0508 442.927 55.3485C443.606 54.6462 443.988 53.6941 443.99 52.7009V26.4785C443.988 25.4853 443.606 24.5332 442.927 23.8309C442.247 23.1286 441.326 22.7336 440.365 22.7324H310.598Z" fill="url(#paint8_linear)"/>
<path d="M328.722 48.2058C333.126 48.2058 336.696 44.5161 336.696 39.9645C336.696 35.4129 333.126 31.7231 328.722 31.7231C324.318 31.7231 320.747 35.4129 320.747 39.9645C320.747 44.5161 324.318 48.2058 328.722 48.2058Z" fill="white"/>
<path d="M365.065 36.3872C364.2 36.3872 363.37 36.7424 362.758 37.3747C362.146 38.0069 361.803 38.8645 361.803 39.7587C361.803 40.6528 362.146 41.5104 362.758 42.1426C363.37 42.7749 364.2 43.1301 365.065 43.1301H410.737C411.602 43.1301 412.432 42.7749 413.044 42.1426C413.656 41.5104 413.999 40.6528 413.999 39.7587C413.999 38.8645 413.656 38.0069 413.044 37.3747C412.432 36.7424 411.602 36.3872 410.737 36.3872H365.065Z" fill="white"/>
</g>
<defs>
<filter id="filter0_d" x="0" y="0" width="607" height="414" filterUnits="userSpaceOnUse" color-interpolation-filters="sRGB">
<feFlood flood-opacity="0" result="BackgroundImageFix"/>
<feColorMatrix in="SourceAlpha" type="matrix" values="0 0 0 0 0 0 0 0 0 0 0 0 0 0 0 0 0 0 127 0"/>
<feOffset dx="3" dy="4"/>
<feGaussianBlur stdDeviation="2.5"/>
<feColorMatrix type="matrix" values="0 0 0 0 0 0 0 0 0 0 0 0 0 0 0 0 0 0 0.21 0"/>
<feBlend mode="normal" in2="BackgroundImageFix" result="effect1_dropShadow"/>
<feBlend mode="normal" in="SourceGraphic" in2="effect1_dropShadow" result="shape"/>
</filter>
<linearGradient id="paint0_linear" x1="87.5446" y1="391.514" x2="210" y2="431" gradientUnits="userSpaceOnUse">
<stop stop-color="#E6E6E6"/>
<stop offset="1" stop-color="#E6E6E6" stop-opacity="0"/>
</linearGradient>
<linearGradient id="paint1_linear" x1="267" y1="252" x2="672.5" y2="252" gradientUnits="userSpaceOnUse">
<stop stop-color="#E6E6E6"/>
<stop offset="1" stop-color="#BABABA" stop-opacity="0.55"/>
</linearGradient>
<radialGradient id="paint2_radial" cx="0" cy="0" r="1" gradientUnits="userSpaceOnUse" gradientTransform="translate(421.261 236.871) rotate(-155.532) scale(153.002 1425.15)">
<stop stop-color="#6C63FF"/>
<stop offset="1" stop-color="#B000F8"/>
</radialGradient>
<linearGradient id="paint3_linear" x1="267.479" y1="304.141" x2="286.479" y2="335.641" gradientUnits="userSpaceOnUse">
<stop stop-color="#6C63FF"/>
<stop offset="0.515625" stop-color="#B000F8"/>
<stop offset="1" stop-color="#F864EE"/>
</linearGradient>
<linearGradient id="paint4_linear" x1="381.479" y1="304.141" x2="400.479" y2="335.641" gradientUnits="userSpaceOnUse">
<stop stop-color="#6C63FF"/>
<stop offset="0.515625" stop-color="#B000F8"/>
<stop offset="1" stop-color="#F864EE"/>
</linearGradient>
<linearGradient id="paint5_linear" x1="494.479" y1="304.141" x2="513.479" y2="335.641" gradientUnits="userSpaceOnUse">
<stop stop-color="#6C63FF"/>
<stop offset="0.515625" stop-color="#B000F8"/>
<stop offset="1" stop-color="#F864EE"/>
</linearGradient>
<linearGradient id="paint6_linear" x1="428" y1="129" x2="669" y2="129" gradientUnits="userSpaceOnUse">
<stop stop-color="#6C63FF"/>
<stop offset="1" stop-color="#F864EE"/>
</linearGradient>
<linearGradient id="paint7_linear" x1="428" y1="129" x2="669" y2="129" gradientUnits="userSpaceOnUse">
<stop stop-color="#6C63FF"/>
<stop offset="1" stop-color="#F864EE"/>
</linearGradient>
<linearGradient id="paint8_linear" x1="299" y1="40" x2="516" y2="40" gradientUnits="userSpaceOnUse">
<stop stop-color="#6C63FF"/>
<stop offset="1" stop-color="#F864EE"/>
</linearGradient>
<clipPath id="clip0">
<rect width="597" height="404" fill="white" transform="translate(2 1)"/>
</clipPath>
</defs>
</svg>
