<svg width="64" height="58" viewBox="0 0 64 58" fill="none" xmlns="http://www.w3.org/2000/svg">
<path d="M58.9345 13.6588C50.7574 7.1146 42.8261 12.4479 33.9795 10.5623C25.0689 8.66292 21.5189 2.33849 11.37 5.25777C2.37975 7.84381 -3.07525 18.2116 1.867 26.8917C3.27537 29.3651 5.67462 31.2312 6.65512 33.9988C8.23675 38.4634 5.82925 41.891 6.29887 46.2786C8.25037 64.5089 34.9956 57.4475 44.8367 51.7756C60.2705 42.8805 70.7115 23.0842 58.9345 13.6588Z" fill="url(#paint0_linear)"/>
<path d="M46.6937 1.9516V55.0098C46.6937 55.4964 46.2012 55.8113 45.785 55.5901L44.04 54.6624C43.8612 54.5674 43.65 54.5674 43.4712 54.6624L41.1012 55.9219C40.9225 56.0169 40.7112 56.0169 40.5337 55.9219L38.1625 54.6624C37.985 54.5674 37.7737 54.5674 37.595 54.6624L35.225 55.9219C35.0462 56.0169 34.835 56.0169 34.6562 55.9219L32.2862 54.6624C32.1075 54.5674 31.8962 54.5674 31.7175 54.6624L29.3462 55.9219C29.1687 56.0169 28.9575 56.0169 28.7787 55.9219L26.4075 54.6624C26.23 54.5674 26.0175 54.5674 25.84 54.6624L23.4687 55.9219C23.29 56.0169 23.0787 56.0169 22.9 55.9219L20.53 54.6624C20.3512 54.5674 20.14 54.5674 19.9612 54.6624L18.215 55.5901C17.7987 55.8113 17.3062 55.4964 17.3062 55.0111V1.9516C17.3062 1.23333 17.865 0.650391 18.5562 0.650391H45.4437C46.135 0.650391 46.6937 1.23333 46.6937 1.9516Z" fill="white"/>
<path d="M46.6936 15.1279V28.9908C43.0161 28.9908 40.0349 25.8875 40.0349 22.0594C40.0349 18.2313 43.0161 15.1279 46.6936 15.1279Z" fill="#DCFDEE"/>
<path d="M34.9405 56.643C34.7452 56.643 34.5502 56.5958 34.3723 56.5013L32.0017 55.2417L29.6311 56.5013C29.2751 56.6902 28.8502 56.6901 28.4947 56.5013L26.124 55.2417L23.7532 56.5013C23.3973 56.6902 22.9726 56.6902 22.6168 56.5013L20.2456 55.2417L18.4993 56.1693C18.1087 56.3769 17.6523 56.3584 17.2783 56.12C16.9043 55.8817 16.6811 55.4668 16.6811 55.0104V1.95182C16.6811 0.875584 17.5222 0 18.5561 0H24.6777C25.0228 0 25.3027 0.291341 25.3027 0.650605C25.3027 1.00987 25.0228 1.30121 24.6777 1.30121H18.5561C18.2115 1.30121 17.9311 1.59307 17.9311 1.95182V55.0102L19.6772 54.0826C20.0331 53.8937 20.458 53.8937 20.8136 54.0826L23.1848 55.3422L25.5556 54.0826C25.9113 53.8935 26.3362 53.8934 26.6922 54.0826L29.0627 55.342L31.4333 54.0825C31.7891 53.8934 32.214 53.8933 32.57 54.0825L34.9405 55.3419L37.3106 54.0825C37.6667 53.8934 38.0915 53.8934 38.4472 54.0825L40.8175 55.342L43.1872 54.0826C43.5432 53.8935 43.968 53.8935 44.3237 54.0825L46.0691 55.0098V29.871C46.0691 29.5117 46.349 29.2204 46.6941 29.2204C47.0392 29.2204 47.3191 29.5117 47.3191 29.871V55.0101C47.3191 55.4666 47.0958 55.8814 46.7218 56.1198C46.348 56.3582 45.8913 56.3766 45.5008 56.169L43.7556 55.2416L41.3857 56.501C41.03 56.6902 40.605 56.6904 40.249 56.501L37.879 55.2416L35.5088 56.501C35.3308 56.5958 35.1356 56.643 34.9405 56.643Z" fill="#2626BC"/>
<path d="M32.6249 24.6657H21.8099C21.4646 24.6657 21.1849 24.3743 21.1849 24.015C21.1849 23.6556 21.4646 23.3643 21.8099 23.3643H32.6249C32.9701 23.3643 33.2499 23.6556 33.2499 24.015C33.2499 24.3743 32.9701 24.6657 32.6249 24.6657Z" fill="#8399FE"/>
<path d="M23.2499 22.0594H21.8099C21.4646 22.0594 21.1849 21.7681 21.1849 21.4089C21.1849 21.0496 21.4646 20.7583 21.8099 20.7583H23.2499C23.5951 20.7583 23.8749 21.0496 23.8749 21.4089C23.8749 21.7681 23.5951 22.0594 23.2499 22.0594Z" fill="#01ECA5"/>
<path d="M35.1249 30.5747H21.8099C21.4646 30.5747 21.1849 30.2833 21.1849 29.9241C21.1849 29.5648 21.4646 29.2734 21.8099 29.2734H35.1249C35.4701 29.2734 35.7499 29.5648 35.7499 29.9241C35.7499 30.2833 35.4701 30.5747 35.1249 30.5747Z" fill="#8399FE"/>
<path d="M23.2499 27.9679H21.8099C21.4646 27.9679 21.1849 27.6765 21.1849 27.3172C21.1849 26.9579 21.4646 26.6665 21.8099 26.6665H23.2499C23.5951 26.6665 23.8749 26.9579 23.8749 27.3172C23.8749 27.6765 23.5951 27.9679 23.2499 27.9679Z" fill="#01ECA5"/>
<path d="M33.8749 36.4834H21.8099C21.4646 36.4834 21.1849 36.192 21.1849 35.8328C21.1849 35.4735 21.4646 35.1821 21.8099 35.1821H33.8749C34.2201 35.1821 34.4999 35.4735 34.4999 35.8328C34.4999 36.192 34.2201 36.4834 33.8749 36.4834Z" fill="#8399FE"/>
<path d="M23.2499 33.8763H21.8099C21.4646 33.8763 21.1849 33.585 21.1849 33.2257C21.1849 32.8665 21.4646 32.5752 21.8099 32.5752H23.2499C23.5951 32.5752 23.8749 32.8665 23.8749 33.2257C23.8749 33.585 23.5951 33.8763 23.2499 33.8763Z" fill="#01ECA5"/>
<path d="M28.8749 42.3917H21.8099C21.4646 42.3917 21.1849 42.1003 21.1849 41.741C21.1849 41.3817 21.4646 41.0903 21.8099 41.0903H28.8749C29.2201 41.0903 29.4999 41.3817 29.4999 41.741C29.4999 42.1003 29.2201 42.3917 28.8749 42.3917Z" fill="#8399FE"/>
<path d="M34.595 42.3917H31.905C31.5598 42.3917 31.28 42.1003 31.28 41.741C31.28 41.3817 31.5598 41.0903 31.905 41.0903H34.595C34.9403 41.0903 35.22 41.3817 35.22 41.741C35.22 42.1003 34.9402 42.3917 34.595 42.3917Z" fill="#8399FE"/>
<path d="M23.2499 39.7848H21.8099C21.4646 39.7848 21.1849 39.4934 21.1849 39.1341C21.1849 38.7748 21.4646 38.4834 21.8099 38.4834H23.2499C23.5951 38.4834 23.8749 38.7748 23.8749 39.1341C23.8749 39.4934 23.5951 39.7848 23.2499 39.7848Z" fill="#01ECA5"/>
<path d="M41.827 24.6665H39.762C39.4168 24.6665 39.137 24.3751 39.137 24.0159C39.137 23.6566 39.4168 23.3652 39.762 23.3652H41.827C42.1723 23.3652 42.452 23.6566 42.452 24.0159C42.452 24.3751 42.1722 24.6665 41.827 24.6665Z" fill="#8399FE"/>
<path d="M42.4525 24.0149C42.4525 24.3753 42.1725 24.6655 41.8275 24.6655H40.5212C40.36 24.2504 40.235 23.8145 40.1525 23.3643H41.8275C42.1725 23.3643 42.4525 23.6557 42.4525 24.0149Z" fill="#6583FE"/>
<path d="M41.827 30.5743H39.762C39.4168 30.5743 39.137 30.283 39.137 29.9237C39.137 29.5643 39.4168 29.2729 39.762 29.2729H41.827C42.1723 29.2729 42.452 29.5643 42.452 29.9237C42.452 30.283 42.1722 30.5743 41.827 30.5743Z" fill="#8399FE"/>
<path d="M41.827 36.4832H39.762C39.4168 36.4832 39.137 36.1919 39.137 35.8327C39.137 35.4734 39.4168 35.1821 39.762 35.1821H41.827C42.1723 35.1821 42.452 35.4734 42.452 35.8327C42.452 36.1919 42.1722 36.4832 41.827 36.4832Z" fill="#8399FE"/>
<path d="M41.827 42.3912H39.762C39.4168 42.3912 39.137 42.0999 39.137 41.7405C39.137 41.3812 39.4168 41.0898 39.762 41.0898H41.827C42.1723 41.0898 42.452 41.3812 42.452 41.7405C42.452 42.0999 42.1722 42.3912 41.827 42.3912Z" fill="#8399FE"/>
<path d="M41.6201 39.7922C41.275 39.7922 40.9951 39.5008 40.9951 39.1416V39.1266C40.9951 38.7674 41.275 38.4761 41.6201 38.4761C41.9652 38.4761 42.2451 38.7674 42.2451 39.1266V39.1416C42.2451 39.501 41.9654 39.7922 41.6201 39.7922Z" fill="#01ECA5"/>
<path d="M41.8271 49.9219H38.8096C38.4643 49.9219 38.1846 49.6305 38.1846 49.2712C38.1846 48.912 38.4643 48.6206 38.8096 48.6206H41.8271C42.1723 48.6206 42.4521 48.912 42.4521 49.2712C42.4521 49.6305 42.1722 49.9219 41.8271 49.9219Z" fill="#8399FE"/>
<path d="M26.0779 49.9219H21.8104C21.4651 49.9219 21.1854 49.6305 21.1854 49.2712C21.1854 48.912 21.4651 48.6206 21.8104 48.6206H26.0779C26.4231 48.6206 26.7029 48.912 26.7029 49.2712C26.7029 49.6305 26.423 49.9219 26.0779 49.9219Z" fill="#8399FE"/>
<path d="M41.6201 33.8836C41.275 33.8836 40.9951 33.5923 40.9951 33.233V33.218C40.9951 32.8587 41.275 32.5674 41.6201 32.5674C41.9652 32.5674 42.2451 32.8587 42.2451 33.218V33.233C42.2451 33.5923 41.9654 33.8836 41.6201 33.8836Z" fill="#01ECA5"/>
<path d="M41.6201 27.9754C41.275 27.9754 40.9951 27.6841 40.9951 27.3248V27.3098C40.9951 26.9505 41.275 26.6592 41.6201 26.6592C41.9652 26.6592 42.2451 26.9505 42.2451 27.3098V27.3248C42.2451 27.6841 41.9654 27.9754 41.6201 27.9754Z" fill="#01ECA5"/>
<path d="M41.6201 22.0666C41.275 22.0666 40.9951 21.7752 40.9951 21.416V21.401C40.9951 21.0418 41.275 20.7505 41.6201 20.7505C41.9652 20.7505 42.2451 21.0418 42.2451 21.401V21.416C42.2451 21.7752 41.9654 22.0666 41.6201 22.0666Z" fill="#01ECA5"/>
<path d="M46.694 26.0202C50.3714 26.0202 53.3526 22.9169 53.3526 19.0887C53.3526 15.2606 50.3714 12.1572 46.694 12.1572C43.0165 12.1572 40.0353 15.2606 40.0353 19.0887C40.0353 22.9169 43.0165 26.0202 46.694 26.0202Z" fill="#01ECA5"/>
<path d="M47.319 11.5365V1.95182C47.319 0.875584 46.4779 0 45.444 0H28.334C27.9889 0 27.709 0.291341 27.709 0.650605C27.709 1.00987 27.9889 1.30121 28.334 1.30121H45.444C45.7887 1.30121 46.069 1.59307 46.069 1.95182V11.5365C42.3445 11.868 39.4104 15.1274 39.4104 19.0889C39.4104 23.2697 42.6779 26.6709 46.6942 26.6709C50.7104 26.6709 53.9778 23.2697 53.9778 19.0889C53.9777 15.1274 51.0435 11.8677 47.319 11.5365ZM46.694 25.3696C43.367 25.3696 40.6603 22.5521 40.6603 19.0888C40.6603 15.6255 43.367 12.8078 46.694 12.8078C50.021 12.8078 52.7277 15.6255 52.7277 19.0888C52.7277 22.5521 50.021 25.3696 46.694 25.3696Z" fill="#2626BC"/>
<path d="M47.5084 18.438H47.3189V17.1134H48.5007C48.8458 17.1134 49.1257 16.822 49.1257 16.4628C49.1257 16.1035 48.8458 15.8122 48.5007 15.8122H47.3189V15.4851C47.3189 15.1258 47.039 14.8345 46.6939 14.8345C46.3488 14.8345 46.0689 15.1258 46.0689 15.4851V15.8122H45.8794C44.8393 15.8122 43.9932 16.693 43.9932 17.7757C43.9932 18.8584 44.8393 19.7392 45.8794 19.7392H46.0689V21.0638H44.8873C44.5422 21.0638 44.2623 21.3552 44.2623 21.7144C44.2623 22.0737 44.5422 22.365 44.8873 22.365H46.0689V22.6921C46.0689 23.0514 46.3488 23.3427 46.6939 23.3427C47.039 23.3427 47.3189 23.0514 47.3189 22.6921V22.365H47.5084C48.5484 22.365 49.3945 21.4842 49.3945 20.4015C49.3945 19.3188 48.5484 18.438 47.5084 18.438ZM45.8794 18.438C45.5285 18.438 45.2432 18.1409 45.2432 17.7757C45.2432 17.4104 45.5285 17.1134 45.8794 17.1134H46.0689V18.438H45.8794ZM47.5084 21.0638H47.3189V19.7392H47.5084C47.8592 19.7392 48.1445 20.0363 48.1445 20.4015C48.1445 20.7667 47.8592 21.0638 47.5084 21.0638Z" fill="white"/>
<path d="M34.5949 16.9648H29.4049C29.0597 16.9648 28.7799 16.6735 28.7799 16.3142C28.7799 15.9549 29.0597 15.6636 29.4049 15.6636H34.5949C34.9402 15.6636 35.2199 15.9549 35.2199 16.3142C35.2199 16.6735 34.94 16.9648 34.5949 16.9648Z" fill="#8399FE"/>
<path d="M38.0324 12.1571H25.9674C25.6222 12.1571 25.3424 11.8657 25.3424 11.5065C25.3424 11.1473 25.6222 10.856 25.9674 10.856H38.0324C38.3777 10.856 38.6574 11.1473 38.6574 11.5065C38.6574 11.8657 38.3775 12.1571 38.0324 12.1571Z" fill="#4369FD"/>
<path d="M41.1574 9.30174H22.8424C22.4972 9.30174 22.2174 9.01039 22.2174 8.65111C22.2174 8.29184 22.4972 8.00049 22.8424 8.00049H41.1574C41.5026 8.00049 41.7824 8.29184 41.7824 8.65111C41.7824 9.01039 41.5025 9.30174 41.1574 9.30174Z" fill="#4369FD"/>
<path d="M23.2499 6.44627H21.8099C21.4646 6.44627 21.1849 6.15492 21.1849 5.79565C21.1849 5.43637 21.4646 5.14502 21.8099 5.14502H23.2499C23.5951 5.14502 23.8749 5.43637 23.8749 5.79565C23.8749 6.15492 23.5951 6.44627 23.2499 6.44627Z" fill="#01ECA5"/>
<path d="M51.3974 7.03107C50.9333 7.03107 50.4692 6.84708 50.1158 6.47935C49.4092 5.74377 49.4092 4.54677 50.1158 3.81106C50.8224 3.07535 51.9724 3.07535 52.679 3.81106C53.3857 4.54677 53.3857 5.74377 52.679 6.47935C52.3258 6.84708 51.8617 7.03107 51.3974 7.03107ZM51.3975 4.55991C51.2534 4.55991 51.1094 4.61691 50.9998 4.73116C50.7805 4.95939 50.7805 5.33089 50.9998 5.55926C51.2189 5.78749 51.5759 5.78762 51.7953 5.55926C52.0145 5.33102 52.0145 4.95952 51.7953 4.73116C51.6855 4.61691 51.5415 4.55991 51.3975 4.55991Z" fill="#00ECA2"/>
<path d="M54.5402 13.3922C54.0761 13.3922 53.612 13.2084 53.2586 12.8405C52.9162 12.4841 52.7277 12.0104 52.7277 11.5064C52.7277 11.0025 52.9162 10.5287 53.2587 10.1723C53.9652 9.43676 55.1151 9.43663 55.8218 10.1723C56.1642 10.5287 56.3527 11.0025 56.3527 11.5064C56.3527 12.0105 56.1642 12.4843 55.8217 12.8405C55.4686 13.2083 55.0043 13.3922 54.5402 13.3922ZM54.5402 10.9212C54.3962 10.9212 54.2521 10.9782 54.1425 11.0924C54.0361 11.203 53.9777 11.35 53.9777 11.5064C53.9777 11.6628 54.0362 11.8099 54.1425 11.9205C54.3619 12.1488 54.7187 12.1488 54.938 11.9205C55.0443 11.8099 55.1027 11.6628 55.1027 11.5064C55.1027 11.35 55.0442 11.203 54.938 11.0924C54.8283 10.9782 54.6843 10.9212 54.5402 10.9212Z" fill="#FF7EB8"/>
<path d="M13.1725 27.1196C12.7083 27.1196 12.2441 26.9357 11.8908 26.5679C11.1842 25.8323 11.1842 24.6353 11.8908 23.8998C12.5975 23.1643 13.7475 23.1642 14.4541 23.8998C15.1607 24.6354 15.1607 25.8324 14.4541 26.5679C14.1008 26.9357 13.6366 27.1196 13.1725 27.1196ZM13.1725 24.6486C13.0285 24.6486 12.8843 24.7056 12.7747 24.8198C12.5553 25.048 12.5553 25.4195 12.7747 25.6479C12.994 25.8762 13.351 25.8761 13.5702 25.6479C13.7896 25.4197 13.7896 25.0482 13.5702 24.8198C13.4606 24.7056 13.3166 24.6486 13.1725 24.6486Z" fill="#FF7EB8"/>
<path d="M12.3666 32.9674C12.2066 32.9674 12.0467 32.9039 11.9246 32.7769L11.1791 32.0009L10.4336 32.7769C10.1895 33.0309 9.79386 33.0309 9.54973 32.7769C9.30561 32.5228 9.30561 32.1108 9.54973 31.8568L10.7372 30.6207C10.9814 30.3667 11.377 30.3667 11.6211 30.6207L12.8086 31.8568C13.0527 32.111 13.0527 32.5229 12.8086 32.7769C12.6865 32.9039 12.5266 32.9674 12.3666 32.9674Z" fill="#6583FE"/>
<path d="M53.3527 51.8087C53.1927 51.8087 53.0328 51.7452 52.9107 51.6182L52.1652 50.8422L51.4197 51.6182C51.1756 51.8722 50.7799 51.8722 50.5358 51.6182C50.2917 51.3641 50.2917 50.9521 50.5358 50.6981L51.7233 49.462C51.9674 49.208 52.3631 49.208 52.6072 49.462L53.7947 50.6981C54.0388 50.9523 54.0388 51.3642 53.7947 51.6182C53.6726 51.7451 53.5127 51.8087 53.3527 51.8087Z" fill="#00ECA2"/>
<defs>
<linearGradient id="paint0_linear" x1="-1.12663" y1="16.2197" x2="59.1249" y2="44.0354" gradientUnits="userSpaceOnUse">
<stop stop-color="#C6D1FF"/>
<stop offset="0.5834" stop-color="#E6D5F4"/>
<stop offset="0.997" stop-color="#FFD9EC"/>
</linearGradient>
</defs>
</svg>
