<svg width="780" height="474" viewBox="0 0 780 474" fill="none" xmlns="http://www.w3.org/2000/svg">
<g clip-path="url(#clip0)" filter="url(#filter0_d)">
<path d="M56 98C46.5065 98 37.2262 95.1849 29.3327 89.9106C21.4391 84.6363 15.2868 77.1397 11.6538 68.3688C8.0208 59.598 7.07024 49.9468 8.92233 40.6357C10.7744 31.3246 15.346 22.7718 22.0589 16.0589C28.7718 9.34597 37.3246 4.77442 46.6357 2.92233C55.9468 1.07024 65.598 2.0208 74.3688 5.6538C83.1397 9.28681 90.6363 15.4391 95.9106 23.3327C101.185 31.2262 104 40.5065 104 50C103.986 62.726 98.9239 74.9266 89.9253 83.9253C80.9266 92.9239 68.726 97.9856 56 98ZM56 4.00003C46.9021 4.00003 38.0085 6.69788 30.4438 11.7524C22.8791 16.807 16.9832 23.9912 13.5016 32.3966C10.0199 40.802 9.10899 50.0511 10.8839 58.9742C12.6588 67.8973 17.0399 76.0937 23.4731 82.5269C29.9063 88.9602 38.1027 93.3412 47.0259 95.1161C55.949 96.8911 65.1981 95.9801 73.6035 92.4985C82.0089 89.0168 89.1931 83.1209 94.2476 75.5563C99.3022 67.9916 102 59.098 102 50C101.986 37.8043 97.1354 26.1121 88.5117 17.4884C79.888 8.86471 68.1957 4.01385 56 4.00003V4.00003Z" fill="url(#paint0_linear)"/>
<path d="M382 70C377.253 70 372.613 68.5924 368.666 65.9553C364.72 63.3181 361.643 59.5698 359.827 55.1844C358.01 50.799 357.535 45.9734 358.461 41.3179C359.387 36.6623 361.673 32.3859 365.029 29.0294C368.386 25.673 372.662 23.3872 377.318 22.4612C381.973 21.5351 386.799 22.0104 391.184 23.8269C395.57 25.6434 399.318 28.7196 401.955 32.6663C404.592 36.6131 406 41.2533 406 46C405.993 52.363 403.462 58.4633 398.963 62.9626C394.463 67.4619 388.363 69.9928 382 70V70ZM382 24C377.649 24 373.395 25.2903 369.777 27.7077C366.16 30.1251 363.34 33.561 361.675 37.581C360.01 41.601 359.574 46.0244 360.423 50.292C361.272 54.5596 363.367 58.4796 366.444 61.5563C369.52 64.6331 373.44 66.7284 377.708 67.5773C381.976 68.4262 386.399 67.9905 390.419 66.3254C394.439 64.6602 397.875 61.8404 400.292 58.2225C402.71 54.6047 404 50.3512 404 46C403.993 40.1673 401.673 34.5753 397.549 30.4509C393.425 26.3266 387.833 24.0066 382 24Z" fill="url(#paint1_linear)"/>
<path d="M551 187C545.66 187 540.44 185.416 536 182.45C531.559 179.483 528.099 175.266 526.055 170.332C524.012 165.399 523.477 159.97 524.519 154.733C525.561 149.495 528.132 144.684 531.908 140.908C535.684 137.132 540.495 134.561 545.733 133.519C550.97 132.477 556.399 133.012 561.332 135.055C566.266 137.099 570.483 140.559 573.45 145C576.416 149.44 578 154.66 578 160C577.992 167.158 575.145 174.021 570.083 179.083C565.021 184.145 558.158 186.992 551 187V187ZM551 135C546.055 135 541.222 136.466 537.111 139.213C533 141.96 529.795 145.865 527.903 150.433C526.011 155.001 525.516 160.028 526.48 164.877C527.445 169.727 529.826 174.181 533.322 177.678C536.819 181.174 541.273 183.555 546.123 184.52C550.972 185.484 555.999 184.989 560.567 183.097C565.135 181.205 569.04 178 571.787 173.889C574.534 169.778 576 164.945 576 160C575.993 153.372 573.356 147.017 568.669 142.331C563.983 137.644 557.628 135.007 551 135V135Z" fill="url(#paint2_linear)"/>
<path d="M770.057 460H545.057C544.792 460 544.537 459.895 544.35 459.707C544.162 459.52 544.057 459.265 544.057 459C544.057 458.735 544.162 458.48 544.35 458.293C544.537 458.105 544.792 458 545.057 458H770.057C770.322 458 770.577 458.105 770.764 458.293C770.952 458.48 771.057 458.735 771.057 459C771.057 459.265 770.952 459.52 770.764 459.707C770.577 459.895 770.322 460 770.057 460Z" fill="#CCCCCC"/>
<path d="M648.917 155.247C662.482 155.247 673.478 144.251 673.478 130.686C673.478 117.121 662.482 106.125 648.917 106.125C635.352 106.125 624.356 117.121 624.356 130.686C624.356 144.251 635.352 155.247 648.917 155.247Z" fill="#FFB8B8"/>
<path d="M651.465 422.343L639.857 426.285L619.124 383.386L636.257 377.567L651.465 422.343Z" fill="#FFB8B8"/>
<path d="M630.439 425.785L652.826 418.181L657.614 432.277L621.13 444.669C620.502 442.818 620.244 440.861 620.371 438.91C620.499 436.959 621.009 435.053 621.874 433.299C622.738 431.546 623.939 429.979 625.409 428.69C626.878 427.401 628.588 426.414 630.439 425.785V425.785Z" fill="#2F2E41"/>
<path d="M677.694 446.575L665.45 447.19L657.249 400.255L675.321 399.346L677.694 446.575Z" fill="#FFB8B8"/>
<path d="M656.528 444.131L680.142 442.944L680.889 457.812L642.407 459.746C642.309 457.794 642.596 455.841 643.253 454C643.91 452.158 644.922 450.464 646.234 449.014C647.545 447.564 649.129 446.387 650.895 445.549C652.661 444.711 654.576 444.229 656.528 444.131V444.131Z" fill="#2F2E41"/>
<path d="M604.829 290.63C605.927 289.652 606.797 288.446 607.378 287.095C607.96 285.745 608.238 284.284 608.193 282.814C608.149 281.345 607.782 279.903 607.12 278.591C606.458 277.278 605.516 276.127 604.361 275.218L616.035 241.443L598.044 246.041L589.716 277.409C588.317 279.451 587.716 281.935 588.027 284.39C588.337 286.846 589.537 289.102 591.4 290.732C593.263 292.362 595.659 293.251 598.134 293.232C600.609 293.214 602.991 292.288 604.829 290.63Z" fill="#FFB8B8"/>
<path d="M676.55 432.424C676.391 432.424 676.233 432.415 676.076 432.398L659.455 430.639C658.434 430.536 657.479 430.084 656.751 429.361C656.023 428.637 655.566 427.686 655.457 426.665L642.612 312.155L633.318 343.49L650.647 405.073C650.823 405.7 650.861 406.358 650.758 407.002C650.656 407.645 650.414 408.258 650.051 408.799C649.688 409.341 649.212 409.796 648.656 410.135C648.099 410.474 647.476 410.688 646.829 410.763L629.981 412.699C628.908 412.818 627.828 412.549 626.936 411.941C626.044 411.333 625.399 410.426 625.118 409.384L606.709 340.081C606.557 339.511 606.52 338.917 606.598 338.333L614.872 276.134L676.586 281.083L681.048 427.786C681.066 428.388 680.964 428.988 680.746 429.55C680.528 430.112 680.2 430.624 679.78 431.057C679.361 431.489 678.859 431.833 678.304 432.068C677.749 432.303 677.152 432.424 676.55 432.424V432.424Z" fill="#2F2E41"/>
<path d="M655.217 291.719C634.541 291.719 611.132 283.73 609.715 283.239L609.305 283.097L632.629 163.413L633.059 163.431C642.302 163.806 667.528 163.998 667.782 164L668.234 164.003L677.957 269.622L679.695 285.071L679.482 285.243C673.534 290.052 664.661 291.719 655.217 291.719Z" fill="#6C63FF"/>
<path d="M617.864 281.375L603.275 275.499L610.711 185.555C610.89 183.338 611.565 181.189 612.685 179.267C613.806 177.345 615.343 175.699 617.185 174.452L624.862 169.227C624.645 168.488 624.606 167.709 624.749 166.952C624.891 166.195 625.211 165.483 625.682 164.874C626.153 164.265 626.762 163.777 627.459 163.449C628.155 163.121 628.92 162.962 629.689 162.987L631.888 163.058C632.306 162.776 632.799 162.627 633.303 162.631C633.808 162.635 634.299 162.79 634.713 163.078C635.126 163.366 635.444 163.772 635.623 164.243C635.802 164.714 635.834 165.229 635.715 165.719L635.232 175.248L617.864 281.375Z" fill="#2F2E41"/>
<path d="M610.502 265.251L591.454 264.449L597.625 224.756L602.738 187.407C602.838 186.066 603.241 184.765 603.915 183.602C604.589 182.438 605.517 181.441 606.631 180.687C607.744 179.932 609.014 179.439 610.344 179.245C611.675 179.05 613.033 179.158 614.315 179.562V179.562C616.314 180.189 618.027 181.499 619.156 183.263C620.285 185.027 620.757 187.132 620.49 189.209L615.31 229.676L610.502 265.251Z" fill="#2F2E41"/>
<path d="M640.665 282.751L640.535 282.35C640.447 282.076 631.862 254.538 646.227 221.678L653.43 185.852L659.585 163.357C659.701 162.955 659.908 162.586 660.191 162.278C660.475 161.97 660.826 161.733 661.217 161.585C661.676 161.425 662.172 161.405 662.643 161.526C663.114 161.647 663.539 161.904 663.865 162.265V162.265C668.156 161.006 672.768 161.467 676.725 163.551L685.369 168.105C687.292 169.117 688.824 170.739 689.725 172.716C690.627 174.692 690.847 176.912 690.351 179.028L678.536 229.451L684.279 276.548L640.665 282.751Z" fill="#2F2E41"/>
<path d="M653.245 263.338C654.706 263.496 656.185 263.333 657.576 262.858C658.968 262.384 660.238 261.61 661.298 260.591C662.358 259.573 663.182 258.334 663.711 256.963C664.241 255.591 664.463 254.12 664.363 252.654L691.119 232.833L681.766 228.399L652.915 243.261C650.462 243.593 648.216 244.813 646.603 246.69C644.99 248.568 644.122 250.971 644.162 253.446C644.203 255.921 645.15 258.295 646.824 260.118C648.498 261.941 650.783 263.087 653.245 263.338V263.338Z" fill="#FFB8B8"/>
<path d="M670.019 254.465L660.982 237.596L683.27 222.928L672.394 183.919C671.958 182.357 671.849 180.722 672.074 179.116C672.298 177.51 672.851 175.968 673.699 174.585C674.546 173.203 675.67 172.01 676.999 171.081C678.328 170.153 679.834 169.508 681.423 169.187V169.187C684.232 168.627 687.149 169.106 689.632 170.534C692.114 171.962 693.995 174.242 694.923 176.951L709.598 220.087C709.901 220.975 709.918 221.937 709.647 222.835C709.376 223.734 708.83 224.526 708.087 225.099L670.019 254.465Z" fill="#2F2E41"/>
<path d="M650.655 135.895C647.711 136.278 645.49 133.266 644.46 130.481C643.43 127.696 642.645 124.455 640.085 122.95C636.588 120.895 632.113 123.367 628.114 122.689C623.597 121.923 620.661 117.137 620.431 112.562C620.201 107.986 622.021 103.586 623.808 99.368L624.431 104.61C624.348 102.833 624.722 101.065 625.517 99.4741C626.313 97.8831 627.503 96.5229 628.974 95.5234L628.171 103.216C628.342 102.154 628.721 101.137 629.286 100.223C629.851 99.3085 630.591 98.5147 631.464 97.887C632.336 97.2593 633.324 96.8101 634.371 96.5653C635.418 96.3204 636.502 96.2847 637.563 96.4601L637.436 101.043C642.653 100.423 647.915 99.802 653.147 100.275C658.379 100.747 663.647 102.402 667.613 105.848C673.544 111.002 675.711 119.489 674.983 127.313C674.256 135.138 671.026 142.488 667.66 149.589C666.813 151.375 665.642 153.391 663.678 153.619C661.913 153.823 660.298 152.348 659.75 150.658C659.327 148.925 659.343 147.113 659.797 145.387C660.294 142.75 660.919 140.054 660.453 137.412C659.986 134.769 658.085 132.158 655.421 131.834C652.757 131.51 650.031 134.555 651.312 136.913L650.655 135.895Z" fill="#2F2E41"/>
<path d="M329.31 405.577L319.749 401.552L313.191 353.624H225.851L218.742 401.356L210.188 405.633C209.779 405.837 209.451 406.174 209.257 406.589C209.063 407.003 209.014 407.471 209.12 407.916C209.225 408.361 209.477 408.758 209.836 409.042C210.195 409.326 210.639 409.48 211.096 409.48H328.522C328.991 409.48 329.445 409.318 329.808 409.021C330.171 408.724 330.42 408.311 330.513 407.851C330.606 407.392 330.537 406.914 330.317 406.5C330.098 406.085 329.742 405.759 329.31 405.577V405.577Z" fill="#E6E6E6"/>
<path d="M484.519 360H55.481C53.2299 359.995 51.0728 359.097 49.4829 357.504C47.8929 355.91 47 353.751 47 351.5V291H493V351.5C493 353.751 492.107 355.91 490.517 357.504C488.927 359.097 486.77 359.995 484.519 360V360Z" fill="#CCCCCC"/>
<path d="M493.448 319.594H46.6084V60.7271C46.6115 58.0104 47.6922 55.4059 49.6132 53.485C51.5342 51.564 54.1387 50.4835 56.8554 50.4805H483.201C485.918 50.4835 488.523 51.5641 490.444 53.485C492.365 55.4059 493.445 58.0104 493.448 60.7271V319.594Z" fill="#3F3D56"/>
<path d="M466.76 300.805H73.2964C71.202 300.803 69.1941 299.97 67.7131 298.489C66.2321 297.008 65.3991 295 65.3967 292.906V77.1685C65.3991 75.074 66.2321 73.0661 67.713 71.5851C69.194 70.104 71.202 69.271 73.2964 69.2686H466.76C468.855 69.271 470.863 70.104 472.344 71.5851C473.825 73.0661 474.658 75.074 474.66 77.1685V292.906C474.658 295 473.825 297.008 472.344 298.489C470.863 299.97 468.855 300.803 466.76 300.805Z" fill="white"/>
<path d="M463.057 409.98H82.0569C81.7917 409.98 81.5373 409.875 81.3498 409.688C81.1622 409.5 81.0569 409.246 81.0569 408.98C81.0569 408.715 81.1622 408.461 81.3498 408.273C81.5373 408.086 81.7917 407.98 82.0569 407.98H463.057C463.322 407.98 463.576 408.086 463.764 408.273C463.952 408.461 464.057 408.715 464.057 408.98C464.057 409.246 463.952 409.5 463.764 409.688C463.576 409.875 463.322 409.98 463.057 409.98Z" fill="#CCCCCC"/>
<path d="M429.796 274H110.261C109.996 274 109.741 273.895 109.554 273.707C109.366 273.52 109.261 273.265 109.261 273V119.847C109.261 119.581 109.366 119.327 109.554 119.14C109.741 118.952 109.996 118.847 110.261 118.847C110.526 118.847 110.78 118.952 110.968 119.14C111.155 119.327 111.261 119.581 111.261 119.847V272H429.796C430.061 272 430.316 272.105 430.503 272.293C430.691 272.48 430.796 272.735 430.796 273C430.796 273.265 430.691 273.52 430.503 273.707C430.316 273.895 430.061 274 429.796 274Z" fill="#3F3D56"/>
<path d="M178.531 263H149.469C148.682 262.999 147.927 262.686 147.371 262.13C146.814 261.573 146.501 260.819 146.5 260.032V219.968C146.501 219.181 146.814 218.427 147.371 217.87C147.927 217.314 148.682 217.001 149.469 217H178.531C179.318 217.001 180.073 217.314 180.629 217.87C181.186 218.427 181.499 219.181 181.5 219.968V260.032C181.499 260.819 181.186 261.573 180.629 262.13C180.073 262.686 179.318 262.999 178.531 263V263Z" fill="url(#paint3_linear)"/>
<path d="M231.531 263H202.469C201.682 262.999 200.927 262.686 200.371 262.13C199.814 261.573 199.501 260.819 199.5 260.032V181.968C199.501 181.181 199.814 180.427 200.371 179.87C200.927 179.314 201.682 179.001 202.469 179H231.531C232.318 179.001 233.073 179.314 233.629 179.87C234.186 180.427 234.499 181.181 234.5 181.968V260.032C234.499 260.819 234.186 261.573 233.629 262.13C233.073 262.686 232.318 262.999 231.531 263Z" fill="url(#paint4_linear)"/>
<path d="M284.531 263H255.469C254.682 262.999 253.927 262.686 253.371 262.13C252.814 261.573 252.501 260.819 252.5 260.032V219.968C252.501 219.181 252.814 218.427 253.371 217.87C253.927 217.314 254.682 217.001 255.469 217H284.531C285.318 217.001 286.073 217.314 286.629 217.87C287.186 218.427 287.499 219.181 287.5 219.968V260.032C287.499 260.819 287.186 261.573 286.629 262.13C286.073 262.686 285.318 262.999 284.531 263V263Z" fill="url(#paint5_linear)"/>
<path d="M337.531 263H308.469C307.699 263.017 306.955 262.728 306.399 262.197C305.842 261.665 305.519 260.935 305.5 260.166V166.834C305.519 166.065 305.842 165.335 306.399 164.804C306.955 164.273 307.699 163.984 308.469 164H337.531C338.301 163.984 339.045 164.273 339.601 164.804C340.158 165.335 340.481 166.065 340.5 166.834V260.166C340.481 260.935 340.158 261.665 339.601 262.197C339.045 262.728 338.301 263.017 337.531 263V263Z" fill="url(#paint6_linear)"/>
<path d="M390.531 263H361.469C360.682 262.999 359.927 262.686 359.37 262.13C358.814 261.573 358.501 260.819 358.5 260.032V139.968C358.501 139.181 358.814 138.427 359.37 137.87C359.927 137.314 360.682 137.001 361.469 137H390.531C391.318 137.001 392.073 137.314 392.63 137.87C393.186 138.427 393.499 139.181 393.5 139.968V260.032C393.499 260.819 393.186 261.573 392.63 262.13C392.073 262.686 391.318 262.999 390.531 263Z" fill="url(#paint7_linear)"/>
<path d="M164 205C167.314 205 170 202.314 170 199C170 195.686 167.314 193 164 193C160.686 193 158 195.686 158 199C158 202.314 160.686 205 164 205Z" fill="#3F3D56"/>
<path d="M217 166C220.314 166 223 163.314 223 160C223 156.686 220.314 154 217 154C213.686 154 211 156.686 211 160C211 163.314 213.686 166 217 166Z" fill="#3F3D56"/>
<path d="M270 205C273.314 205 276 202.314 276 199C276 195.686 273.314 193 270 193C266.686 193 264 195.686 264 199C264 202.314 266.686 205 270 205Z" fill="#3F3D56"/>
<path d="M323 147C326.314 147 329 144.314 329 141C329 137.686 326.314 135 323 135C319.686 135 317 137.686 317 141C317 144.314 319.686 147 323 147Z" fill="#3F3D56"/>
<path d="M376 125C379.314 125 382 122.314 382 119C382 115.686 379.314 113 376 113C372.686 113 370 115.686 370 119C370 122.314 372.686 125 376 125Z" fill="#3F3D56"/>
<path d="M270.126 200.344L217 160.552L164.6 199.8L163.4 198.2L217 158.053L269.874 197.656L322.415 140.158L322.626 140.072L375.626 118.718L376.374 120.573L323.585 141.842L270.126 200.344Z" fill="#3F3D56"/>
</g>
<defs>
<filter id="filter0_d" x="0" y="0" width="779.057" height="474" filterUnits="userSpaceOnUse" color-interpolation-filters="sRGB">
<feFlood flood-opacity="0" result="BackgroundImageFix"/>
<feColorMatrix in="SourceAlpha" type="matrix" values="0 0 0 0 0 0 0 0 0 0 0 0 0 0 0 0 0 0 127 0"/>
<feOffset dy="6"/>
<feGaussianBlur stdDeviation="4"/>
<feColorMatrix type="matrix" values="0 0 0 0 0 0 0 0 0 0 0 0 0 0 0 0 0 0 0.29 0"/>
<feBlend mode="normal" in2="BackgroundImageFix" result="effect1_dropShadow"/>
<feBlend mode="normal" in="SourceGraphic" in2="effect1_dropShadow" result="shape"/>
</filter>
<linearGradient id="paint0_linear" x1="94" y1="26.5" x2="19" y2="84" gradientUnits="userSpaceOnUse">
<stop stop-color="#6C63FF"/>
<stop offset="1" stop-color="#F864EE"/>
</linearGradient>
<linearGradient id="paint1_linear" x1="406" y1="22" x2="382" y2="70" gradientUnits="userSpaceOnUse">
<stop stop-color="#F864EE"/>
<stop offset="1" stop-color="#6C63FF"/>
</linearGradient>
<linearGradient id="paint2_linear" x1="564" y1="133" x2="524" y2="174" gradientUnits="userSpaceOnUse">
<stop stop-color="#6C63FF"/>
<stop offset="1" stop-color="#F864EE"/>
</linearGradient>
<linearGradient id="paint3_linear" x1="164" y1="217" x2="164" y2="279.5" gradientUnits="userSpaceOnUse">
<stop stop-color="#6C63FF"/>
<stop offset="1" stop-color="#251A68"/>
</linearGradient>
<linearGradient id="paint4_linear" x1="217" y1="179" x2="217" y2="302.5" gradientUnits="userSpaceOnUse">
<stop stop-color="#6C63FF"/>
<stop offset="1" stop-color="#21175E"/>
</linearGradient>
<linearGradient id="paint5_linear" x1="270" y1="217" x2="270" y2="285.5" gradientUnits="userSpaceOnUse">
<stop stop-color="#6C63FF"/>
<stop offset="1" stop-color="#21175E"/>
</linearGradient>
<linearGradient id="paint6_linear" x1="323" y1="164" x2="323" y2="290.5" gradientUnits="userSpaceOnUse">
<stop stop-color="#6C63FF"/>
<stop offset="1" stop-color="#21175E"/>
</linearGradient>
<linearGradient id="paint7_linear" x1="393" y1="137" x2="365" y2="284.5" gradientUnits="userSpaceOnUse">
<stop stop-color="#6C63FF"/>
<stop offset="1" stop-color="#21175E"/>
</linearGradient>
<clipPath id="clip0">
<rect width="763.057" height="458" fill="white" transform="translate(8 2)"/>
</clipPath>
</defs>
</svg>
