<svg width="61" height="63" viewBox="0 0 61 63" fill="none" xmlns="http://www.w3.org/2000/svg">
<g clip-path="url(#clip0)">
<path d="M14.7362 24.8585L0 20.6865V51.5102L14.7362 28.042V24.8585Z" fill="#44C4A1"/>
<path d="M14.7362 1.44092L3.34756 4.35715C1.49878 4.8307 0 6.76243 0 8.67183V14.249L14.7362 18.4209V1.44092Z" fill="#44C4A1"/>
<path d="M57.6525 1.16133L38.6752 5.58135V35.4688L41.5481 36.3486L61 5.82122V3.83904C61 1.92964 59.5012 0.730695 57.6525 1.16133Z" fill="#44C4A1"/>
<path d="M61.0001 42.3061V11.2803L44.4587 37.2401L61.0001 42.3061Z" fill="#44C4A1"/>
<path d="M38.6752 47.3661V61.9266L57.6525 57.5066C59.5012 57.076 61 55.179 61 53.2696V48.7443L41.5858 42.7983L38.6752 47.3661Z" fill="#44C4A1"/>
<path d="M0 56.9695V58.1019C0 60.0113 1.49878 61.1754 3.34756 60.702L14.7362 57.7858V33.5015L0 56.9695Z" fill="#44C4A1"/>
<path d="M14.7362 18.421L0 14.249V20.6869L14.7362 24.8588V18.421Z" fill="#F6C358"/>
<path d="M14.7362 28.0425L0 51.5106V56.9698L14.7362 33.5018V28.0425Z" fill="#F6C358"/>
<path d="M38.6752 35.4689V41.9067V47.3659L41.5858 42.798L61 48.7441V42.3063L44.4587 37.2402L61 11.2804V5.82129L41.5481 36.3487L38.6752 35.4689Z" fill="#F6C358"/>
<path d="M14.7363 24.8589V28.0424L16.4336 26.0593L14.7363 24.8589Z" fill="#3EA69B"/>
<path d="M19.6812 21.9182L34.3811 4.74231L14.7363 1.44092V18.4209L19.6812 21.9182Z" fill="#3EA69B"/>
<path d="M22.5917 23.9767L38.6753 35.3513V5.46382L38.466 5.42871L22.5917 23.9767Z" fill="#3EA69B"/>
<path d="M27.7806 59.9778L38.6754 61.8086V47.248L27.7806 59.9778Z" fill="#3EA69B"/>
<path d="M38.6752 41.7891L19.3441 28.1177L14.7363 33.5016V57.786L23.696 59.2916L38.6752 41.7891Z" fill="#3EA69B"/>
<path d="M38.4659 5.42857L34.3811 4.74219L19.6812 21.9181L14.7363 18.4208V24.8586L16.4336 26.0591L14.7363 28.0422V33.5015L19.3441 28.1175L38.6752 41.789V35.3511L22.5916 23.9765L38.4659 5.42857Z" fill="#F6C358"/>
<path d="M27.7806 59.9779L38.6753 47.2482V41.7891L23.696 59.2916L27.7806 59.9779Z" fill="#F6C358"/>
<path d="M13.738 9.70639C13.738 12.448 8.93142 20.744 8.93142 20.744C9.11522 20.744 4.12482 12.4481 4.12482 9.70639C4.12482 6.96464 6.27685 4.74219 8.93142 4.74219C11.586 4.74219 13.738 6.96464 13.738 9.70639Z" fill="#CE412D"/>
<path d="M8.93112 12.5784C10.4647 12.5784 11.7079 11.2944 11.7079 9.71057C11.7079 8.12673 10.4647 6.84277 8.93112 6.84277C7.39756 6.84277 6.15436 8.12673 6.15436 9.71057C6.15436 11.2944 7.39756 12.5784 8.93112 12.5784Z" fill="white"/>
<path d="M49.2652 41.3128C49.2652 44.0544 44.4586 52.3503 44.4586 52.3503C44.6424 52.3503 39.652 44.0544 39.652 41.3128C39.652 38.5712 41.8041 36.3486 44.4586 36.3486C47.1133 36.3486 49.2652 38.5712 49.2652 41.3128Z" fill="#CE412D"/>
<path d="M44.4568 44.1809C45.9903 44.1809 47.2335 42.897 47.2335 41.3131C47.2335 39.7293 45.9903 38.4453 44.4568 38.4453C42.9232 38.4453 41.68 39.7293 41.68 41.3131C41.68 42.897 42.9232 44.1809 44.4568 44.1809Z" fill="white"/>
</g>
<defs>
<clipPath id="clip0">
<rect width="61" height="63" fill="white"/>
</clipPath>
</defs>
</svg>
