<svg width="249" height="249" viewBox="0 0 249 249" fill="none" xmlns="http://www.w3.org/2000/svg">
<path d="M247.5 124.5C247.5 192.431 192.431 247.5 124.5 247.5C56.569 247.5 1.5 192.431 1.5 124.5C1.5 56.569 56.569 1.5 124.5 1.5C179.119 1.5 225.427 37.1019 241.476 86.3696C245.386 98.3724 247.5 111.188 247.5 124.5Z" stroke="#BEBF7C" stroke-width="3"/>
<path d="M223.5 127C223.5 181.4 179.4 225.5 125 225.5C70.6 225.5 26.5 181.4 26.5 127C26.5 72.6 70.6 28.5 125 28.5C168.739 28.5 205.824 57.0101 218.676 96.4646C221.807 106.076 223.5 116.339 223.5 127Z" stroke="#BFC06B" stroke-width="3"/>
</svg>
